<svg width="1874" height="795" viewBox="0 0 1874 795" fill="none" xmlns="http://www.w3.org/2000/svg">
<path d="M927.781 365.179C903.021 364.19 881.981 356.25 865.039 341.442C844.352 323.391 832.569 298.555 830.017 267.647C827.926 242.399 831.239 219.184 839.818 198.688C848.505 177.918 861.048 161.022 877.094 148.494C893.628 135.581 911.98 128.191 931.609 126.542C958.976 124.235 976.569 134.565 986.505 143.631C1000.24 156.159 1008.36 173.495 1010.02 193.716C1010.61 201.133 1010.4 208.249 1009.34 214.98C1012.84 213.634 1016.53 212.782 1020.33 212.453C1033.53 211.354 1045.74 217.013 1053.84 227.975C1059.21 235.256 1062.41 244.46 1063.31 255.312C1064.64 271.631 1061.3 286.027 1053.37 298.088C1053.32 298.171 1053.24 298.28 1053.18 298.363C1040.21 317.622 1023.78 333.227 1004.37 344.793C984.876 356.387 965.057 363.091 945.456 364.739C939.374 365.261 933.483 365.399 927.781 365.179Z" fill="#CD333F
" stroke="#CD333F
" stroke-width="28.0047" stroke-miterlimit="10"/>
<path d="M1065.23 355.448C1039.84 354.46 1018.35 346.008 1001.13 330.284C980.883 311.761 969.212 285.993 966.535 253.695C964.714 231.797 967.694 210.667 975.447 190.854C983.449 170.41 995.782 153.369 1012.17 140.197C1029.17 126.531 1049.2 118.655 1071.66 116.789C1094.01 114.951 1114.01 120.768 1129.54 133.638C1140.47 142.694 1153.96 159.488 1156.33 188.082C1157.22 198.62 1156.39 208.883 1153.88 218.68C1160.42 221.259 1166.24 225.677 1170.76 231.714C1176.25 239.014 1179.48 248.207 1180.39 259.018C1181.63 273.837 1178.96 287.448 1172.45 299.412C1163.87 315.246 1151.75 328.226 1136.44 337.94C1121.32 347.545 1103.11 353.28 1082.31 355.009C1076.46 355.503 1070.75 355.64 1065.26 355.421L1065.23 355.448Z" fill="#CD333F
" stroke="#CD333F
" stroke-width="28.0047" stroke-miterlimit="10"/>
<path d="M1162.98 428.704H1162.6C1150.61 428.096 1139.6 421.815 1132.77 411.826C1132.69 411.688 1132.58 411.577 1132.45 411.494C1131.8 411.107 1131.1 410.72 1130.32 410.277C1124.46 406.929 1115.63 401.893 1107.32 391.656C1094.82 376.3 1090.05 354.912 1094.5 334.409C1098.66 315.318 1110.26 299.99 1126.32 292.298C1139.52 285.989 1154.58 285.546 1167.89 291.025C1168.13 291.108 1168.37 291.136 1168.62 291.025C1170.67 290.333 1172.77 289.78 1174.91 289.365C1190.05 286.432 1205.76 290.804 1218.01 301.428C1230.75 312.496 1238.25 328.378 1239.14 346.169C1240.09 364.9 1233.45 383.272 1220.98 396.553C1212.34 405.739 1203.35 410 1197.28 412.795C1196.15 413.625 1194.37 414.898 1193.23 415.728C1185.54 424.36 1174.45 429.119 1162.95 428.677L1162.98 428.704ZM1131.67 410.111C1131.67 410.111 1131.67 410.139 1131.67 410.166C1131.67 410.166 1131.67 410.139 1131.67 410.111ZM1132.91 348.88C1132.91 348.88 1132.91 348.908 1132.91 348.935V348.88Z" fill="#CD333F
"/>
<path d="M720.832 384.796C702.068 384.049 686.531 373.309 677.531 354.569C671.049 341.062 666.973 322.267 664.785 295.445C661.803 259.267 664.128 223.919 671.65 190.343C674.741 176.309 681.744 164.545 691.892 156.49C701.329 149.017 713.748 144.588 728.82 143.314C739.652 142.401 748.049 143.73 755.27 147.494C759.729 149.819 763.504 153.003 766.54 156.878C768.4 155.355 770.26 153.916 772.148 152.587C785.879 142.872 799.693 137.363 813.178 136.228C833.256 134.54 846.085 141.571 853.333 147.743C860.555 153.944 869.527 165.597 871.195 185.914C871.332 187.686 871.441 189.956 871.332 193.692C875.791 191.838 879.976 191.007 883.477 190.731C896.552 189.651 908.724 195.076 916.903 205.678C922.565 213.068 925.875 222.175 926.723 232.749C928.474 254.146 921.116 268.346 914.66 276.484C914.605 276.539 914.578 276.594 914.523 276.65C906.208 286.947 896.169 296.054 884.708 303.693C871.605 312.44 857.108 317.561 841.626 318.862C820.427 320.634 802.811 315.762 789.271 304.385C787.602 302.974 785.879 301.368 784.129 299.541C781.721 308.371 779.779 317.506 778.302 326.806C775.731 344.217 771.601 356.369 765.282 365.005C759.401 373.004 748.159 382.859 727.643 384.575C725.346 384.768 723.103 384.824 720.887 384.741L720.832 384.796ZM741.758 284.151C741.758 284.151 741.758 284.262 741.758 284.317C742.168 289.134 742.606 293.452 743.071 297.272C743.837 293.507 744.685 289.743 745.587 286.033C744.247 285.507 742.961 284.871 741.73 284.151H741.758ZM805.082 200.806C807.735 202.107 810.224 203.768 812.44 205.761C812.823 201.498 813.041 198.343 813.205 196.045C811.181 196.931 808.583 198.343 805.328 200.64C805.246 200.695 805.164 200.751 805.082 200.806Z" fill="#CD333F
" stroke="#CD333F
" stroke-width="28.0047" stroke-miterlimit="10"/>
<path d="M470.334 625.117C456.817 644.385 442.28 660.007 427.08 671.6C408.956 685.414 387.108 693.444 362.088 695.527C333.067 697.911 306.695 690.594 285.813 674.341C270.475 662.419 256.324 645.536 242.724 622.897C237.014 642.411 228.793 658.609 217.952 671.902C196.601 698.021 166.229 712.876 127.664 716.055C121.76 716.548 115.912 716.685 110.202 716.439C91.3884 715.699 73.7059 711.122 57.4027 702.763C35.2789 691.443 18.8102 675.273 8.4104 654.8C8.35523 654.663 8.27247 654.498 8.18971 654.361C3.83116 645.481 1.15534 635.724 0.300178 625.419C-0.968768 610.071 1.78981 595.874 8.49315 583.157C17.9827 565.26 34.479 554.05 53.7614 552.46C65.4302 551.501 76.7128 554.05 86.3678 559.806C94.4229 564.657 101.099 571.509 106.892 580.772C110.285 585.952 113.071 589.872 115.305 592.804C116.354 588.803 117.457 582.965 118.064 574.715L118.312 570.632C116.657 569.508 115.167 568.357 113.816 567.206C105.954 560.628 96.2159 548.733 93.8987 529.329C88.8781 531 83.6644 532.042 78.2852 532.508C55.389 534.399 35.141 524.615 22.5895 505.703C9.9552 487.121 2.5898 466.374 0.713965 443.982C-1.2998 419.946 3.58289 397.115 15.1965 376.121C26.6722 355.429 44.6581 338.217 68.7129 324.979C91.0298 312.701 118.671 305.109 150.891 302.45C164.215 301.354 176.822 301.08 188.38 301.656C200.407 302.259 213.621 304.122 227.69 307.219C257.813 313.742 277.289 334.49 279.634 362.692C279.965 366.775 280.02 370.722 279.772 374.532C283.027 364.802 285.979 354.333 288.599 343.123C292.296 327.364 300.544 313.824 312.488 304.013C324.074 294.447 338.502 288.884 355.302 287.513C371.798 286.143 386.28 289.542 398.28 297.627C412.625 307.329 421.314 322.485 422.804 340.355C423.245 345.59 422.887 351.318 421.618 359.019C421.507 359.677 421.397 360.335 421.232 360.965C410.556 410.435 392.018 451.574 366.143 483.257C356.405 495.179 397.315 511.13 386.418 520.476C391.604 527.273 377.812 547.089 378.639 560.765C380.956 556.023 383.963 550.432 388.046 544.759C397.839 531.302 411.714 523.272 427.273 522.011C444.238 520.613 460.541 527.986 470.886 541.772C477.617 550.706 481.562 561.806 482.665 574.688C484.293 594.092 480.127 611.057 470.307 625.117H470.334Z" fill="#CD333F
"/>
<path d="M438.992 687.231C416.139 686.332 396.711 673.318 385.996 651.347C385.832 650.993 385.64 650.612 385.476 650.258L385.366 650.013C385.037 649.305 384.708 648.57 384.38 647.835C382.681 643.914 381.174 639.748 379.886 635.447C376.241 623.168 373.665 607.921 372.049 588.917C372.049 588.863 372.049 588.672 372.049 588.618C371.83 585.813 371.61 583.009 371.473 580.205C371.473 580.123 371.473 580.041 371.473 579.96C369.418 545.982 372.021 512.738 379.255 481.156C382.9 464.875 391.203 451.234 403.26 441.705C403.369 441.624 403.451 441.542 403.561 441.46C414.714 432.83 429.127 427.711 446.418 426.295C459.05 425.261 469.49 426.922 478.396 431.359L478.889 431.604C481.629 433.02 484.15 434.654 486.507 436.532C501.633 426.268 516.923 420.469 532.077 419.244C555.889 417.256 571.371 425.642 580.195 433.047C588.47 439.99 598.609 452.596 601.486 473.723C602.171 473.642 602.856 473.587 603.514 473.533C620.064 472.199 636.012 479.25 646.288 492.455C653.248 501.385 657.304 512.248 658.345 524.772C660.4 549.521 651.549 566.102 643.74 575.631C634.67 586.712 623.736 596.486 611.214 604.708C607.295 607.295 603.157 609.636 598.992 611.624C587.648 617.151 575.372 620.472 562.548 621.507C541.969 623.222 524.185 619.41 509.58 610.235C509.059 612.713 508.593 615.218 508.182 617.722C508.1 618.213 508.018 618.675 507.908 619.165L507.634 620.935C504.675 640.239 500.016 653.361 492.563 663.408C492.481 663.544 492.371 663.653 492.289 663.789C486.151 671.875 474.697 682.248 455.132 685.924C452.419 686.469 449.651 686.822 446.884 687.067C444.253 687.285 441.622 687.34 439.074 687.231H438.992Z" fill="#CD333F
"/>
<path d="M630.508 672.568C607.704 671.656 587.429 662.624 571.384 646.022C555.092 629.145 545.366 607.13 542.509 580.529C542.509 580.446 542.509 580.336 542.481 580.253L542.179 577.325C542.179 577.131 542.151 576.938 542.124 576.745C540.53 557.105 542.289 537.686 547.317 519.041C549.267 511.831 551.712 504.732 554.57 497.91C564.927 472.883 580.23 451.642 600.012 434.93C621.222 417.003 645.179 406.782 671.252 404.545C671.334 404.545 671.417 404.545 671.526 404.545C690.456 403.053 702.984 408.964 710.704 415.124C726.777 414.71 740.211 419.074 750.789 428.079C761.202 436.946 767.548 449.736 768.702 464.044C769.114 468.933 769.224 476.364 767.575 495.147C772.548 492.993 777.851 491.639 783.373 491.142C800.462 489.65 816.754 497.108 827.112 511.058C833.788 520.063 837.717 531.195 838.816 544.177V544.233C840.464 564.121 836.288 581.219 826.452 595.114C819.749 604.975 812.605 614.173 805.16 622.46C800.16 628.012 794.967 633.233 789.665 638.067C771.971 654.116 752.932 663.093 733.041 664.778C717.738 665.993 702.819 662.651 689.357 655.027C673.285 666.85 656.526 671.159 642.816 672.291C638.64 672.651 634.519 672.733 630.48 672.568H630.508Z" fill="#CD333F
"/>
<path d="M820.656 794.428C801.792 793.689 784.737 787.287 770.754 775.66C765.16 771.009 760.334 765.729 756.304 759.957C744.13 742.53 742.101 722.777 741.607 717.716C737.769 679.032 761.212 647.871 766.449 641.196C761.267 637.749 756.386 633.7 751.862 629.049C751.807 628.994 751.725 628.912 751.67 628.857C747.859 624.89 744.569 620.896 741.69 616.683C730.887 601.198 724.498 582.294 722.661 560.49C722.661 560.271 722.634 560.025 722.606 559.806L722.442 557.59C720.742 531.819 724.937 506.622 734.945 482.547C745.473 457.432 760.773 436.421 780.432 419.979C801.627 402.196 825.591 392.074 851.584 389.913C870.585 388.408 883.061 394.235 890.793 400.363C903.57 399.953 914.291 402.415 923.394 407.832C931.537 412.675 945.466 424.493 947.632 449.471C948.044 454.45 948.153 458.581 947.934 462.247C947.769 465.968 947.386 471.686 946.837 479.428C951.005 477.978 955.282 477.075 959.587 476.747C976.724 475.379 993.01 483.012 1003.27 497.265C1009.74 506.211 1013.52 516.908 1014.51 529.028C1014.51 529.028 1014.51 529.055 1014.51 529.083C1015.52 541.695 1013.96 552.501 1009.79 562.104C1005.68 571.57 999.18 579.859 990.461 586.781L984.264 591.787C981.714 593.839 979.219 595.836 976.861 597.779C965.126 607.162 954.514 615.808 945.082 623.577C944.918 623.714 944.753 623.851 944.589 623.988L934.17 632.304C928.192 682.78 935.815 687.185 922.325 719.467C898.169 777.11 860.112 791.966 832.473 794.291C828.47 794.619 824.522 794.701 820.656 794.537V794.428Z" fill="#CD333F
"/>
<path d="M987.529 643.299C966.319 642.465 946.996 632.482 932.393 614.573C924.203 604.507 918.068 592.911 914.153 580.091C911.488 571.665 909.739 562.489 908.962 552.839C908.185 543.246 907.74 534.709 907.574 526.755C907.296 514.909 907.574 503.313 908.379 492.44C909.85 473.698 913.071 453.815 917.957 433.181C921.955 416.747 929.451 403.76 940.222 394.361C940.333 394.278 940.417 394.194 940.528 394.083C951.549 384.684 966.097 379.345 984.948 377.732C985.031 377.732 985.142 377.732 985.225 377.732C1000.61 376.536 1013.04 379.373 1023.32 386.464C1024.68 387.409 1025.98 388.41 1027.2 389.467C1027.73 388.939 1028.23 388.438 1028.76 387.938C1039.5 377.871 1053.96 372.032 1071.73 370.53C1085.5 369.334 1096.41 371.003 1105.94 375.841C1121.04 383.488 1130.56 398.227 1131.98 416.274C1132.48 422.142 1132.62 431.402 1128.45 464.076C1133.42 462.018 1138.7 460.711 1144.19 460.266C1161.27 458.848 1177.62 466.329 1188.06 480.316C1194.8 489.381 1198.77 500.616 1199.86 513.686C1199.86 513.686 1199.86 513.713 1199.86 513.741C1201.49 533.707 1197.3 550.948 1187.36 564.964C1178.09 578.534 1167.85 590.658 1156.91 600.975C1153.63 604.117 1150.02 607.288 1146.36 610.263C1127.95 625.335 1106.07 634.039 1081.51 636.041C1065.1 637.376 1050.11 634.039 1037.5 626.447C1022.76 638.349 1007.82 642.214 996.663 643.104C993.554 643.355 990.472 643.438 987.418 643.327L987.529 643.299Z" fill="#CD333F
"/>
<path d="M1213.91 389.673C1217.21 396.023 1219.24 403.174 1219.88 410.739C1220.4 416.924 1220.67 427.775 1219.3 455.053C1223.64 453.479 1228.07 452.513 1232.55 452.154C1249.66 450.746 1265.99 458.394 1276.33 472.641C1276.44 472.806 1276.58 473 1276.69 473.165C1282.96 482.111 1286.65 492.685 1287.72 504.641C1287.72 504.751 1287.72 504.834 1287.72 504.944C1288.74 517.672 1287.2 528.551 1282.99 538.269C1278.89 547.878 1272.21 556.437 1263.22 563.477C1260.47 565.631 1257.52 567.978 1254.47 570.407C1241.93 580.402 1226.72 592.744 1208.19 607.984C1208.02 615.632 1207.58 626.373 1206.32 639.184C1202.74 674.883 1200.93 692.94 1190.42 712.433C1186.85 719.031 1170.43 749.458 1136.47 760.805C1119.66 766.438 1104.4 765.444 1097.77 764.947C1089.71 764.339 1076.43 763.235 1061.77 755.421C1056.79 752.771 1052.09 749.568 1047.72 745.868C1047.72 745.868 1040.4 739.656 1034.6 731.677C1022.72 715.359 1010.24 671.515 1030.2 631.784C1033.14 625.931 1035.67 622.093 1041.09 614.666C1051.05 600.999 1063.42 589.016 1087.68 565.852L1087.9 561.876C1087.9 561.876 1087.9 561.683 1087.93 561.6C1088.97 544.62 1089.63 527.943 1089.96 512.012C1090.15 502.929 1090.24 496.137 1090.26 489.842C1090.26 489.483 1090.26 489.124 1090.26 488.792C1090.65 475.346 1091.31 455.716 1092.49 425.179V424.461C1094.94 415.184 1097.36 405.88 1099.81 396.603" fill="#CD333F
"/>
<path d="M1294.6 613.912C1266.33 612.802 1242.15 604.115 1222.56 587.959C1213.01 580.057 1204.96 570.72 1198.6 560.193C1189.84 545.714 1184.2 528.692 1181.85 509.64C1181.58 507.664 1181.39 505.527 1181.22 503.362C1179.31 479.98 1182.53 457.409 1190.8 436.274C1199.45 414.191 1212.87 395.734 1230.67 381.472C1249.25 366.561 1271.16 357.955 1295.75 355.871C1321.09 353.868 1343.69 360.499 1361.29 375.085C1373.65 385.342 1388.99 404.286 1391.71 436.301C1391.85 437.951 1391.96 439.575 1392.01 441.199C1392.67 441.118 1393.32 441.064 1394.01 441.01C1410.9 439.602 1426.61 446.72 1437.04 460.549C1443.67 469.371 1447.6 480.277 1448.69 492.969C1448.69 492.997 1448.69 493.024 1448.69 493.078C1450.3 512.563 1446.12 529.369 1436.27 543.062C1431.47 549.936 1425.77 556.675 1419.33 563.034C1410.76 571.586 1400.39 579.948 1388.66 587.851C1366.58 602.681 1341.97 611.287 1315.56 613.479C1308.35 614.074 1301.37 614.236 1294.63 613.993L1294.6 613.912Z" fill="#CD333F
"/>
<path d="M1420.52 604.292C1400.99 603.525 1383.46 595.229 1370.34 580.362C1362.51 571.491 1356.54 560.539 1352.09 546.849C1349.71 539.676 1347.74 531.626 1346.28 522.974C1344.75 513.966 1343.32 505.287 1341.99 496.799C1337.98 470.679 1335.05 446.776 1333.25 425.639L1332.14 412.004C1332.11 411.648 1332.09 411.292 1332.06 410.936C1330.65 384.844 1341.41 369.456 1350.67 361.16C1361.41 351.55 1375.85 345.91 1393.58 344.404C1410.76 343.062 1425.2 346.868 1436.73 355.684C1436.87 355.794 1437.04 355.903 1437.18 356.013C1438.84 357.3 1440.55 358.805 1442.27 360.585C1443.73 359.052 1445.28 357.546 1446.86 356.122C1446.91 356.067 1447 356.013 1447.05 355.958C1459.86 344.486 1475.71 337.668 1492.92 336.245C1511.81 334.684 1529.57 340.844 1542.96 353.603C1553.61 363.734 1560.36 377.15 1563.07 393.496C1564.67 393.249 1566.36 393.057 1568.13 392.921C1583.82 391.688 1598.92 397.247 1609.46 408.253C1615.49 414.523 1622.9 425.502 1624.34 442.396C1624.34 442.423 1624.34 442.478 1624.34 442.505C1625.67 458.577 1622.88 472.678 1616.04 484.451C1609.07 496.608 1597.9 506.218 1583.76 512.159C1574.83 515.883 1565.48 518.785 1555.82 520.866C1548.69 522.399 1541.3 523.467 1533.8 524.097C1529.35 524.48 1524.92 524.672 1520.52 524.672C1517.32 530.394 1514 536.199 1510.54 542.058C1498.92 561.799 1488.49 575.242 1477.73 584.414C1464.23 595.832 1447.74 602.594 1429.93 604.073C1426.75 604.347 1423.59 604.401 1420.47 604.292H1420.52ZM1583.73 469.255C1583.73 469.255 1583.73 469.255 1583.71 469.255C1583.71 469.255 1583.71 469.255 1583.73 469.255Z" fill="#CD333F
"/>
<path d="M1617.51 589.596C1600.14 588.907 1584.23 585.05 1570.08 578.107C1561.95 574.167 1554.24 569.042 1547.29 563.008C1526.06 544.493 1513.24 519.724 1509.16 489.362C1508.77 486.91 1508.47 484.32 1508.23 481.289C1506.76 463.38 1507.77 446.464 1511.17 430.842C1513.05 422.301 1515.64 414.09 1518.86 406.32C1528.54 383.342 1542.33 364.8 1560.02 351.024C1578.45 336.642 1598.92 328.431 1620.89 326.613C1652.34 323.995 1672.73 336.008 1684.32 346.505C1700.35 361.163 1709.75 381.11 1711.6 404.337C1711.88 407.56 1712.01 410.729 1711.99 413.842C1728.31 412.713 1744.12 420.124 1754.21 433.79C1759.47 440.953 1762.99 449.329 1764.73 458.807C1765.22 461.397 1765.58 464.042 1765.82 466.88C1767.37 485.753 1763.45 502.532 1754.13 516.776C1754.02 516.941 1753.94 517.079 1753.83 517.245C1745.68 529.34 1736.14 540.195 1725.51 549.48C1718.06 556.148 1709.78 562.182 1700.92 567.472C1679.79 580.035 1658.18 587.309 1636.64 589.127C1630.1 589.679 1623.72 589.844 1617.56 589.596H1617.51Z" fill="#CD333F
"/>
<path d="M1734.82 579.886C1720.91 579.334 1707.95 575.414 1696.19 568.209C1689.46 564.151 1683.15 558.907 1677.4 552.641C1674.17 549.08 1671.33 545.491 1668.78 541.765C1657.99 525.92 1651.62 506.735 1649.72 484.652C1649.69 484.294 1649.64 483.962 1649.61 483.603C1647.47 456.69 1651.59 430.328 1661.84 405.291C1672.11 380.117 1687.24 358.889 1706.76 342.189C1727.83 324.219 1751.52 314.033 1777.17 311.852C1796.04 310.334 1808.43 316.269 1816.05 322.48C1833.21 322.452 1845.03 328.829 1852.19 334.543C1864.36 344.232 1871.82 358.751 1873.15 375.424C1873.85 383.871 1873.47 395.713 1871.87 413.766C1871.87 413.876 1871.87 413.959 1871.85 414.069C1870.52 427.982 1869.65 441.563 1869.33 454.426C1869.33 454.951 1869.3 455.503 1869.24 456.027C1869.24 456.414 1869.24 456.8 1869.22 457.187C1868.92 469.995 1869.43 484.818 1870.76 501.27C1872.44 521.531 1868.19 538.287 1858.16 551.095C1850.86 560.425 1836.9 571.991 1811.9 574.061C1798.37 575.221 1787.53 572.985 1779.07 569.451C1769.28 575.138 1758.17 578.616 1745.94 579.637C1742.17 579.941 1738.46 580.024 1734.8 579.886H1734.82ZM1869.19 456.855C1869.19 456.855 1869.19 456.938 1869.19 456.993C1869.19 456.993 1869.19 456.911 1869.19 456.855Z" fill="#CD333F
"/>
<path d="M503.396 404.054C477.642 403.037 455.176 397.509 436.322 387.58C406.331 371.766 388.89 344.153 385.902 307.684C384.272 287.717 386.853 271.682 393.807 258.701C402.609 242.254 417.931 232.298 436.92 230.703C439.963 230.455 442.978 230.4 445.912 230.593C437.871 224.762 430.427 217.941 423.663 210.158C409.89 194.289 401.903 174.157 399.947 150.312C397.964 126.081 402.745 103.529 414.155 83.3143C425.347 63.4571 442.408 47.2853 464.82 35.2665C485.792 24.0178 510.839 17.1145 539.282 14.7218C560.798 12.9066 581.281 14.5293 600.189 19.5348C621.026 25.0629 638.548 35.074 652.294 49.2656C667.181 64.6397 675.684 84.1944 677.586 107.352C679.352 128.887 677.07 145.939 670.604 159.415C662.237 176.797 647.377 187.441 628.632 189.558C637.896 195.554 646.345 202.87 653.897 211.396C667.208 226.467 674.896 245.472 676.744 267.887C679.976 307.189 666.746 340.687 638.521 364.753C612.794 386.7 577.614 399.709 533.985 403.367C523.336 404.274 513.148 404.522 503.396 404.137V404.054ZM498.995 294.537C499.294 294.675 499.62 294.812 500.054 294.977C505.732 297.205 516.952 299.433 538.304 297.645C559.087 295.885 569.491 290.879 574.544 287.002C578.918 283.646 579.244 281.556 578.945 277.898C578.782 276 578.375 275.533 577.641 274.845C574.028 271.38 569.518 268.602 563.895 266.319C555.582 262.936 543.466 258.783 527.9 253.943C513.23 249.542 500.435 245.197 489.161 240.851C494.866 248.305 498.316 257.271 499.131 267.117C499.674 273.608 499.701 279.493 499.239 284.994C499.239 286.892 499.158 289.037 498.995 291.677C498.941 292.557 498.941 293.52 498.995 294.537ZM555.609 114.283C552.512 114.173 549.198 114.255 545.639 114.558C525.183 116.29 516.327 121.351 512.877 124.239C509.807 126.797 508.422 128.997 508.883 134.607C509.155 137.99 510.16 139.255 511.165 140.245C515.05 144.068 519.75 147.121 525.591 149.542C533.931 153.034 545.938 157.187 561.287 161.918C561.369 161.945 561.477 161.973 561.559 162C568.024 164.063 574.082 166.071 579.733 168.024C574.897 161.065 571.963 153.007 571.257 144.371C570.768 138.293 570.741 132.435 571.203 126.907C571.284 121.846 571.284 119.068 571.257 117.583C571.176 117.528 571.067 117.501 570.958 117.446C566.775 115.603 561.613 114.558 555.582 114.31L555.609 114.283Z" fill="#CD333F
" stroke="#CD333F
" stroke-width="28.0047" stroke-miterlimit="10"/>
<path d="M1166.21 335.826C1173.11 323.071 1185.68 318.298 1196.06 327.048C1208.35 337.39 1207.71 357.853 1196.42 369.511C1189.43 376.726 1181.28 377.686 1173.91 382.733C1171.92 384.104 1170.16 385.86 1168.53 387.835C1166.4 390.414 1162.34 390.249 1160.44 387.533C1158.5 384.763 1156.13 382.376 1153.72 380.758C1146.6 375.903 1139.72 374.01 1133.48 366.549C1122.52 353.492 1125.92 329.874 1140.55 323.098C1150.6 318.435 1162.09 323.372 1166.21 335.881" fill="#FAFAE6"/>
<path d="M703.859 341.647C699.087 331.737 695.814 315.489 693.96 292.929C691.233 259.602 693.306 227.548 700.205 196.767C701.868 189.155 705.14 183.37 710.049 179.495C714.93 175.592 722.074 173.267 731.4 172.464C736.445 172.049 740.044 172.381 742.171 173.488C744.298 174.595 745.498 176.948 745.798 180.547C746.125 184.643 745.007 194.055 742.389 208.725C740.699 219.188 739.417 228.323 738.544 236.157C737.645 243.962 737.181 253.568 737.099 264.944C743.616 242.191 751.497 223.451 760.714 208.753C769.931 194.027 779.284 183.315 788.773 176.561C798.263 169.834 807.18 166.097 815.524 165.405C831.94 164.021 840.829 171.661 842.193 188.325C842.465 191.646 842.002 199.84 840.775 212.85C839.602 223.285 839.111 229.762 839.329 232.337C840.066 241.305 843.583 245.54 849.91 244.987C856.972 244.378 865.616 237.983 875.815 225.776C878.814 222.178 882.087 220.213 885.632 219.908C888.904 219.631 891.631 220.905 893.758 223.673C895.885 226.468 897.166 230.288 897.548 235.16C898.312 244.654 896.403 252.294 891.794 258.107C885.332 266.135 877.587 273.193 868.534 279.227C859.508 285.289 849.664 288.749 839.057 289.663C825.668 290.798 815.224 288.196 807.698 281.857C800.172 275.518 795.945 266.467 794.991 254.675C794.663 250.827 794.745 246.952 795.181 243.049C795.263 237.873 795.236 234.413 795.1 232.613C794.772 228.517 793.191 226.579 790.437 226.801C786.646 227.133 782.011 231.838 776.53 240.945C771.049 250.052 765.84 261.927 760.932 276.542C756.024 291.158 752.315 306.437 749.806 322.381C748.007 334.671 745.471 343.086 742.144 347.626C738.817 352.165 733.254 354.767 725.428 355.432C715.83 356.234 708.658 351.695 703.913 341.758" fill="#FAFAE6"/>
<path d="M884.177 319.246C869.386 306.309 861.073 288.3 859.183 265.193C857.51 244.635 860.02 226.271 866.768 210.098C873.488 193.926 882.908 181.126 894.946 171.669C907.011 162.212 920.048 156.895 934.029 155.716C947.767 154.565 958.807 157.772 967.093 165.392C975.379 173.012 980.075 183.291 981.128 196.229C981.992 206.891 980.426 216.101 976.405 223.858C972.383 231.616 966.607 235.809 959.13 236.44C954.38 236.851 950.466 236.029 947.416 233.973C944.339 231.944 942.666 228.875 942.315 224.818C942.18 223.036 942.261 220.98 942.558 218.65C942.855 216.321 943.098 214.649 943.287 213.607C944.231 209.687 944.555 206.096 944.285 202.78C944.016 199.491 942.99 196.996 941.235 195.379C939.454 193.734 937.079 193.049 934.083 193.296C928.334 193.789 923.179 196.832 918.59 202.478C914.002 208.097 910.601 215.498 908.334 224.626C906.066 233.781 905.365 243.676 906.228 254.339C908.63 283.805 922.477 297.455 947.713 295.317C957.97 294.44 968.739 290.027 980.048 282.051C991.357 274.074 1002.18 262.617 1012.55 247.678C1015.24 243.868 1018.48 241.812 1022.24 241.483C1025.47 241.209 1028.17 242.525 1030.31 245.403C1032.44 248.281 1033.71 252.393 1034.14 257.738C1034.92 267.386 1033.19 275.445 1028.96 281.941C1018.4 297.675 1005.28 310.201 989.549 319.575C973.813 328.95 958.348 334.295 943.098 335.583C918.59 337.639 898.968 332.212 884.177 319.274" fill="#FAFAE6"/>
<path d="M1147.3 249.051C1149.48 251.924 1150.78 256.03 1151.22 261.367C1151.99 270.509 1150.47 278.528 1146.7 285.48C1140.47 296.975 1131.78 306.226 1120.67 313.288C1109.56 320.322 1095.96 324.509 1079.86 325.851C1055.35 327.876 1035.72 322.156 1020.97 308.69C1006.22 295.224 997.807 276.092 995.711 251.24C994.25 233.751 996.593 217.165 1002.71 201.454C1008.86 185.771 1018.13 172.935 1030.53 162.972C1042.94 153.01 1057.45 147.344 1074.04 145.975C1088.85 144.744 1101.09 148.138 1110.77 156.157C1120.45 164.176 1125.91 175.644 1127.15 190.616C1128.61 208.105 1123.54 223.651 1111.96 237.254C1100.38 250.857 1079.67 262.571 1049.92 272.424C1057.03 283.591 1067.87 288.545 1082.4 287.368C1092.88 286.493 1101.29 283.4 1107.65 278.008C1114.02 272.643 1121.19 263.858 1129.16 251.733C1131.92 247.682 1135.2 245.492 1139.03 245.164C1142.34 244.89 1145.1 246.204 1147.28 249.078M1048.13 202.111C1042.53 213.552 1040.38 226.99 1041.67 242.454L1041.73 243.221C1056.51 238.431 1067.92 232.136 1076.03 224.308C1084.11 216.508 1087.77 207.886 1086.98 198.526C1086.56 193.709 1084.91 189.959 1081.98 187.249C1079.06 184.567 1075.31 183.39 1070.71 183.773C1061.25 184.54 1053.72 190.671 1048.13 202.111Z" fill="#FAFAE6"/>
<path d="M434.964 565.653C437.153 568.597 438.466 572.779 438.904 578.199C439.725 588.268 437.947 596.467 433.568 602.822C422.484 618.835 410.963 631.408 399.059 640.597C387.154 649.786 372.596 655.096 355.382 656.526C336.39 658.122 320.38 653.803 307.381 643.568C294.382 633.334 281.63 616.799 269.151 593.936C260.038 577.538 252.621 565.35 246.929 557.399C241.237 549.421 235.791 543.891 230.619 540.809C225.446 537.728 219.097 536.132 211.599 535.967L209.738 564.993C207.412 602.355 199.12 629.812 184.944 647.392C170.741 664.945 150.052 674.877 122.822 677.161C105.089 678.646 89.025 675.62 74.5755 668.137C60.1261 660.626 49.6448 650.391 43.1315 637.433C40.9422 632.948 39.6287 627.969 39.1908 622.549C38.5614 614.818 39.7928 607.94 42.9126 601.969C46.0324 595.999 50.411 592.753 56.0759 592.285C59.4146 592.01 62.3154 592.615 64.751 594.101C67.214 595.587 69.6222 598.31 72.0305 602.272C81.2256 616.578 89.0797 626.455 95.6203 631.875C102.134 637.323 109.906 639.661 118.882 638.891C129.144 638.038 137.546 632.591 144.086 622.549C150.627 612.507 154.622 597.567 156.073 577.676L158.426 540.452L152.269 540.974C146.358 541.47 141.596 540.177 137.983 537.095C134.371 534.014 132.319 529.502 131.826 523.587C131.279 516.874 132.565 511.371 135.685 507.079C138.832 502.787 142.964 500.421 148.082 500.008L160.78 498.935C161.519 486.142 162.093 477.256 162.449 472.276L167.183 384.154C160.451 383.934 154.13 384.071 148.219 384.566C126.38 386.382 110.152 391.582 99.479 400.138C88.8061 408.695 84.0717 420.085 85.2484 434.281C85.7958 440.747 86.9178 445.892 88.6692 449.798C90.4207 453.678 92.6374 457.997 95.3466 462.702C96.5508 464.683 97.2623 466.966 97.4538 469.552C97.9191 475.247 95.7024 480.42 90.7764 485.124C85.8505 489.829 80.1856 492.443 73.7819 492.993C65.572 493.681 59.223 490.572 54.7896 483.666C45.9503 470.625 40.8875 456.236 39.5739 440.472C38.233 424.212 41.4348 408.997 49.1795 394.829C56.9242 380.66 69.458 368.774 86.7536 359.145C104.049 349.516 125.915 343.6 152.378 341.372C163.927 340.409 174.572 340.161 184.315 340.657C194.057 341.152 204.84 342.72 216.689 345.361C229.579 348.195 236.475 354.881 237.351 365.473C238.528 379.669 233.082 387.29 221.013 388.281L214.609 493.708C244.384 488.096 267.782 473.074 284.777 448.67C301.771 424.239 314.907 391.885 324.267 351.607C325.991 344.178 329.439 338.318 334.638 333.971C339.838 329.652 346.68 327.121 355.136 326.405C362.333 325.8 368.053 326.955 372.295 329.844C376.536 332.733 378.917 337.163 379.382 343.078C379.519 344.894 379.273 347.892 378.589 352.129C369.257 395.791 353.713 431.145 331.902 458.19C310.091 485.234 285.406 504.053 257.848 514.673C267.782 516.186 276.102 518.992 282.779 523.119C289.456 527.246 295.258 532.556 300.184 539.021C305.11 545.514 310.912 554.566 317.562 566.231C326.921 582.601 335.377 594.046 342.903 600.566C350.429 607.087 358.803 609.948 368.053 609.178C376.263 608.49 383.871 605.078 390.849 598.888C397.827 592.725 406.42 582.436 416.628 568.074C419.419 564.195 422.731 562.104 426.589 561.774C429.928 561.499 432.692 562.819 434.882 565.763" fill="#FAFAE6"/>
<path d="M619.499 527.899C619.113 523.008 617.789 519.211 615.584 516.424C613.434 513.637 610.622 512.353 607.287 512.653C603.675 512.926 600.312 514.921 597.225 518.5C593.173 523.2 589.396 527.107 585.84 530.085C580.189 534.812 575.144 537.38 570.706 537.735C564.228 538.281 560.617 534.047 559.872 525.058C559.624 522.517 560.148 515.987 561.361 505.549C562.601 492.571 563.098 484.375 562.794 481.041C561.388 464.375 552.291 456.725 535.476 458.145C526.958 458.801 517.833 462.544 508.102 469.266C498.371 476.014 488.806 486.752 479.351 501.451C469.895 516.205 461.846 534.894 455.147 557.653C455.257 546.287 455.726 536.697 456.663 528.855C457.573 521.068 458.841 511.916 460.605 501.451C463.252 486.779 464.409 477.38 464.079 473.282C463.803 469.703 462.563 467.353 460.357 466.233C458.179 465.14 454.486 464.785 449.358 465.222C439.737 466.014 432.46 468.364 427.443 472.244C422.453 476.178 419.09 481.916 417.381 489.539C410.82 518.063 408.56 547.653 410.489 578.363V578.418V578.472C410.6 580.904 410.793 583.308 410.986 585.74C412.364 601.942 414.487 614.893 417.381 624.592C418.263 627.598 419.256 630.248 420.303 632.625C420.579 633.253 420.882 633.909 421.158 634.483C426.009 644.428 433.342 648.936 443.211 648.171C444.589 648.062 445.94 647.871 447.18 647.625C453.135 646.532 457.49 644.073 460.33 640.357C463.693 635.822 466.312 627.407 468.186 615.112C468.407 613.882 468.572 612.598 468.848 611.341C471.356 596.751 474.94 582.735 479.543 569.265C484.588 554.675 489.881 542.817 495.532 533.719C501.156 524.62 505.869 519.894 509.756 519.593C512.623 519.32 514.222 521.26 514.581 525.358C514.718 527.161 514.746 530.659 514.663 535.822C514.222 539.757 514.139 543.637 514.443 547.462C515.435 559.238 519.791 568.309 527.482 574.647C535.173 580.986 545.868 583.554 559.597 582.434C567.563 581.778 575.034 579.784 582.146 576.314C584.765 575.084 587.301 573.636 589.782 571.997C599.017 565.959 606.928 558.937 613.544 550.85C618.258 545.085 620.243 537.407 619.443 527.926" fill="#FAFAE6"/>
<path d="M799.843 547.624C799.373 542.129 798.073 537.918 795.888 534.933C793.676 531.949 790.883 530.582 787.537 530.861C783.638 531.223 780.265 533.343 777.472 537.248C772.439 544.444 767.876 550.776 763.756 556.131C759.083 562.24 755.073 567.121 751.644 570.83C745.173 577.831 739.477 581.569 734.527 581.959C731.402 582.21 728.775 581.262 726.646 579.058C724.489 576.883 723.272 573.815 722.968 569.91C722 558.139 723.244 536.941 726.756 506.344C728.913 485.341 729.771 472.092 729.328 466.569C728.581 457.393 721.834 453.348 709.169 454.408C703.168 454.938 697.527 455.942 692.163 457.421C690.393 451.786 688.457 447.909 686.328 445.845C684.171 443.809 680.244 443 674.548 443.475C656.656 445.009 640.203 452.093 625.16 464.84C610.172 477.559 598.613 493.653 590.566 513.177C588.326 518.532 586.474 523.971 585.008 529.438C581.109 543.914 579.809 558.697 581.026 573.871C581.109 574.819 581.22 575.711 581.303 576.604C583.211 594.399 589.239 608.541 599.277 618.972C609.84 629.934 623.169 634.759 639.235 633.393C659.726 631.691 675.82 619.307 687.517 596.184C691.969 606.058 698.053 613.645 705.685 618.972C713.317 624.244 721.392 626.531 729.936 625.834C741.108 624.885 752.28 619.335 763.452 609.154C767.821 605.166 772.079 600.87 776.227 596.268C782.615 589.128 788.754 581.206 794.561 572.56C799.013 566.395 800.783 558.056 799.926 547.624M674.493 553.007C673.11 564.471 670.068 573.787 665.422 581.039C660.804 588.291 655.633 592.112 649.937 592.614C644.24 593.06 639.622 591.471 636.055 587.845C632.46 584.163 630.359 578.305 629.667 570.161C628.478 555.545 630.082 541.404 634.451 527.904C638.82 514.349 645.291 503.22 653.836 494.462C662.353 485.703 672.059 480.739 682.982 479.567L674.493 553.007Z" fill="#FAFAE6"/>
<path d="M1161.02 517.196C1160.54 511.65 1159.22 507.343 1156.98 504.33C1154.73 501.318 1151.9 499.967 1148.51 500.276C1144.53 500.586 1141.16 502.782 1138.3 506.723C1136.37 509.482 1134.49 512.072 1132.69 514.578C1124.34 526.12 1117.35 534.819 1111.89 540.647C1105.18 547.713 1099.18 551.458 1093.97 551.908C1090.54 552.19 1087.63 551.064 1085.3 548.445C1082.97 545.855 1081.63 542.027 1081.18 537.044C1080.56 529.133 1082.5 507.934 1087.04 473.475C1091.16 443.352 1092.96 424.968 1092.4 418.38C1092.09 414.411 1090.66 411.792 1088.19 410.526C1085.72 409.259 1081.43 408.893 1075.37 409.428C1066.71 410.16 1060.34 412.384 1056.25 416.212C1052.21 420.013 1049.46 425.925 1047.98 434.033C1043.6 458.104 1038.75 478.458 1033.39 495.096C1027.98 511.791 1022.68 524.319 1017.44 532.736C1012.14 541.154 1007.54 545.546 1003.58 545.883C1000.72 546.109 998.48 545.18 996.993 543.04C995.507 540.929 994.526 537.072 994.077 531.526C993.32 522.263 994.413 503.57 997.386 475.389C998.311 467.366 999.685 458.329 1001.48 448.306C1003.39 435.947 1004.23 428.684 1004.03 426.573C1003.75 422.885 1002.41 420.21 999.994 418.521C997.638 416.888 993.516 416.297 987.711 416.747C977.475 417.62 970.1 419.957 965.641 423.757C961.211 427.614 957.986 433.583 955.995 441.747C951.48 460.75 948.591 478.599 947.301 495.321C946.572 505.118 946.348 515.366 946.6 526.177C946.768 533.89 947.217 541.914 947.89 550.163C948.423 556.919 949.601 563.197 951.424 568.912C953.891 577.02 957.621 584.115 962.557 590.196C970.941 600.528 981.065 605.201 992.899 604.216C1003.19 603.371 1012.39 597.741 1020.52 587.324C1028.65 576.964 1034.23 562.606 1037.21 544.222C1038.69 561.959 1042.79 575.416 1049.52 584.678C1056.25 593.996 1065.95 598.078 1078.57 597.037C1095.17 595.685 1109.59 589.942 1121.84 579.864C1124.7 577.527 1127.51 575.078 1130.2 572.488C1139.28 563.873 1147.72 553.823 1155.52 542.336C1160.01 536.115 1161.83 527.697 1160.96 517.168" fill="#FAFAE6"/>
<path d="M1409.79 496.296C1409.32 490.958 1408.01 486.839 1405.81 483.966C1403.62 481.067 1400.88 479.766 1397.53 480.064C1393.67 480.362 1390.35 482.422 1387.55 486.242C1386.18 488.221 1384.76 490.09 1383.28 491.987C1374.42 503.314 1363.92 512.961 1351.83 520.874C1337.68 530.115 1324.85 535.182 1313.28 536.131C1295.27 537.621 1282.55 532.77 1275.15 521.579C1304.87 511.715 1325.59 499.981 1337.25 486.351C1348.95 472.72 1354.05 457.112 1352.57 439.579C1351.28 424.594 1345.77 413.05 1336.07 405.029C1326.33 396.98 1313.97 393.593 1299.05 394.785C1282.33 396.194 1267.74 401.858 1255.22 411.857C1242.74 421.83 1233.36 434.701 1227.2 450.445C1221 466.19 1218.67 482.828 1220.15 500.388C1220.26 501.878 1220.4 503.369 1220.59 504.832C1222.26 518.489 1226.1 530.304 1232.13 540.249C1236.24 547.051 1241.37 552.959 1247.51 558.026C1263.66 571.304 1285.24 576.832 1312.27 574.583C1332.06 572.957 1350.21 566.616 1366.8 555.533C1376.53 549.029 1384.87 542.336 1391.83 535.399C1396.74 530.548 1400.96 525.589 1404.44 520.576C1408.86 514.56 1410.64 506.485 1409.79 496.296ZM1266.37 491.554C1265.06 476.053 1267.25 462.558 1272.87 451.096C1278.52 439.633 1286.11 433.482 1295.63 432.696C1300.23 432.29 1304.04 433.482 1306.98 436.192C1309.91 438.874 1311.61 442.641 1311.99 447.465C1312.79 456.922 1309.09 465.512 1300.97 473.344C1292.8 481.202 1281.32 487.516 1266.43 492.312L1266.37 491.581V491.554Z" fill="#FAFAE6"/>
<path d="M1585.45 445.556C1585.08 441.123 1583.72 437.736 1581.4 435.34C1579.11 432.944 1575.96 431.898 1572.05 432.201C1570.21 432.338 1568.92 432.586 1568.14 432.917L1557.7 435.698C1554.85 436.496 1552.14 437.295 1549.52 438.011C1537.04 441.426 1526.71 443.656 1518.53 444.785C1523.53 429.282 1525.57 415.678 1524.59 404.058C1523.73 394.006 1520.74 386.489 1515.57 381.587C1510.41 376.685 1504.05 374.51 1496.42 375.143C1487.77 375.859 1480.26 379.081 1473.87 384.809C1467.5 390.564 1462.73 397.724 1459.49 406.316C1456.25 414.88 1455.03 423.554 1455.72 432.366C1456.62 442.72 1459.35 451.477 1463.9 458.609C1457.18 472.956 1446.93 492.26 1433.17 516.575C1425.49 469.321 1420.38 430.851 1417.87 401.139C1417.28 394.144 1415.25 389.325 1411.73 386.599C1408.18 383.9 1403.02 382.854 1396.21 383.405C1387.28 384.148 1380.77 386.379 1376.58 390.124C1372.42 393.814 1370.58 399.954 1371.03 408.491L1372.15 422.094C1373.88 442.5 1376.7 465.438 1380.63 490.855C1381.94 499.226 1383.37 507.791 1384.87 516.658C1386.05 523.487 1387.55 529.655 1389.34 534.997C1392.1 543.506 1395.59 550.088 1399.78 554.824C1406.65 562.59 1415.44 566.059 1426.16 565.178C1435.85 564.38 1444.28 560.938 1451.43 554.907C1458.57 548.849 1466.78 537.999 1475.99 522.413C1484.06 508.754 1491.4 495.536 1497.96 482.787C1508.46 485.045 1519.46 485.733 1530.98 484.742C1536.82 484.246 1542.51 483.42 1548.01 482.263C1555.3 480.694 1562.33 478.546 1568.98 475.792C1575.12 473.231 1579.56 469.541 1582.29 464.777C1585.08 459.986 1586.09 453.597 1585.45 445.611" fill="#FAFAE6"/>
<path d="M1726.9 470.266C1726.79 468.876 1726.63 467.598 1726.38 466.347C1725.72 462.734 1724.6 459.843 1722.96 457.619C1720.77 454.645 1718 453.311 1714.63 453.589C1710.77 453.895 1707.49 456.007 1704.72 459.926C1699.11 468.015 1693.33 475.102 1687.42 481.217C1682.19 486.72 1676.8 491.39 1671.32 495.281C1659.74 503.453 1648.62 508.011 1638.14 508.9C1612.18 511.068 1597.98 497.032 1595.51 466.792C1594.61 455.868 1595.32 445.696 1597.65 436.301C1599.97 426.907 1603.48 419.347 1608.21 413.565C1612.9 407.784 1618.21 404.643 1624.09 404.115C1627.19 403.865 1629.62 404.588 1631.43 406.283C1633.29 407.979 1634.31 410.508 1634.61 413.899C1634.88 417.262 1634.55 420.959 1633.59 424.989C1633.38 426.045 1633.16 427.768 1632.86 430.159C1632.5 432.549 1632.42 434.661 1632.55 436.496C1632.88 440.665 1634.63 443.778 1637.81 445.89C1640.93 447.975 1644.96 448.809 1649.86 448.42C1657.55 447.808 1663.49 443.472 1667.6 435.495C1671.76 427.518 1673.37 418.068 1672.44 407.145C1671.38 393.859 1666.56 383.269 1658.04 375.431C1649.5 367.649 1638.17 364.341 1624.07 365.509C1609.67 366.704 1596.28 372.179 1583.88 381.907C1571.47 391.608 1561.84 404.782 1554.88 421.348C1552.53 427.046 1550.67 433.049 1549.3 439.247C1546.7 451.171 1545.98 464.096 1547.13 477.965C1547.3 479.966 1547.52 481.967 1547.82 483.885C1550.56 504.842 1558.91 521.352 1572.79 533.498C1577.14 537.306 1581.9 540.475 1587.11 543.004C1600 549.369 1615.39 551.759 1633.35 550.231C1649.01 548.896 1664.94 543.449 1681.1 533.804C1687.8 529.802 1694.02 525.271 1699.82 520.018C1707.98 512.903 1715.26 504.592 1721.61 495.142C1725.97 488.444 1727.75 480.189 1726.93 470.238" fill="#FAFAE6"/>
<path d="M1831.85 505.082C1830.38 487.033 1829.81 470.711 1830.17 456.088C1830.19 455.197 1830.17 454.305 1830.28 453.414C1830.63 439.599 1831.53 425.059 1832.99 409.852C1834.33 394.755 1834.76 384.171 1834.24 378.155C1833.81 372.417 1831.77 368.128 1828.21 365.259C1824.65 362.39 1819.78 361.22 1813.7 361.749C1807.83 362.279 1802.5 363.253 1797.77 364.702C1796.03 359.02 1794.13 355.204 1792.01 353.143C1789.94 351.109 1786.08 350.302 1780.46 350.775C1762.84 352.279 1746.7 359.382 1731.91 372.083C1717.13 384.812 1705.79 400.911 1697.89 420.408C1690 439.794 1686.88 459.904 1688.51 480.71C1688.54 480.794 1688.54 480.877 1688.54 480.961C1689.79 496.559 1693.89 509.399 1700.79 519.621C1702.37 521.933 1704.05 524.077 1705.88 526.111C1709.08 529.648 1712.51 532.545 1716.18 534.773C1723.95 539.592 1732.78 541.569 1742.65 540.734C1762.06 539.09 1774.75 526.723 1780.86 503.522L1781 509.844C1781.79 519.509 1784.45 526.333 1788.99 530.233C1793.56 534.188 1800.16 535.831 1808.86 535.079C1817.8 534.327 1824.02 531.626 1827.64 526.974C1831.25 522.323 1832.67 515.053 1831.82 505.109M1741.05 435.031C1745.34 421.55 1751.65 410.409 1759.94 401.663C1768.23 392.917 1777.57 387.987 1788.01 386.845L1783.93 427.037C1781.46 453.581 1777.71 472.187 1772.68 482.855C1767.63 493.55 1761.57 499.205 1754.42 499.817C1749.55 500.207 1745.53 498.536 1742.27 494.748C1738.98 490.96 1737.05 485.111 1736.4 477.284C1735.23 462.633 1736.75 448.568 1741.05 435.031Z" fill="#FAFAE6"/>
<path d="M450.702 361.66C429.163 350.502 417.289 331.678 415.08 305.213C413.92 291.226 415.439 280.316 419.692 272.538C423.944 264.761 430.792 260.474 440.236 259.677C447.14 259.1 452.911 260.419 457.55 263.635C462.189 266.85 464.757 271.247 465.227 276.853C465.641 281.937 465.641 286.416 465.199 290.319C465.282 291.335 465.254 293.149 465.061 295.705C464.895 298.288 464.923 300.981 465.144 303.784C466.11 315.244 472.627 323.296 484.722 327.913C496.817 332.557 513.357 334.014 534.344 332.255C556.076 330.469 572.754 325.165 584.38 316.398C596.005 307.632 601.224 296.227 600.064 282.239C599.346 273.583 595.895 266.383 589.764 260.612C583.606 254.841 576.151 250.196 567.37 246.706C558.588 243.216 546.273 239.039 530.395 234.202C510.071 228.184 493.42 222.276 480.442 216.422C467.463 210.569 456.059 202.104 446.256 191.002C436.453 179.9 430.792 165.555 429.329 147.994C427.81 129.664 431.345 112.983 440.015 97.8962C448.658 82.8366 461.941 70.58 479.834 61.154C497.728 51.728 519.184 45.9845 544.257 43.8959C562.924 42.357 580.293 43.6761 596.336 47.8532C612.38 52.0303 625.552 59.3403 635.824 69.7831C646.096 80.2259 651.923 93.5817 653.276 109.85C654.629 125.899 653.193 138.183 649.023 146.73C644.854 155.277 638.005 159.948 628.562 160.718C621.907 161.268 616.163 159.701 611.358 155.991C606.526 152.281 603.903 147.637 603.433 142.031C603.019 137.194 603.047 132.715 603.461 128.565C603.599 120.87 603.571 116.006 603.405 113.973C602.522 103.283 596.585 95.5603 585.622 90.8336C574.66 86.1068 561.377 84.3755 545.803 85.6671C523.795 87.4809 507.337 92.8947 496.347 101.853C485.385 110.84 480.497 122.574 481.712 137.084C482.513 146.758 486.213 154.782 492.785 161.158C499.357 167.533 507.337 172.645 516.671 176.492C526.004 180.339 538.983 184.764 555.634 189.793C575.737 196.086 591.918 201.912 604.234 207.298C616.522 212.685 627.291 220.517 636.514 230.767C645.737 241.018 651.011 254.181 652.365 270.203C654.877 300.239 645.351 324.285 623.812 342.34C602.273 360.395 572.312 371.003 533.957 374.191C499.937 376.994 472.158 372.844 450.647 361.66" fill="#FAFAE6"/>
<path d="M975.425 532.028C975.177 529.283 974.626 524.313 971.484 520.113C969.416 517.367 967.459 516.598 966.743 516.351C965.612 515.967 964.4 515.83 963.132 515.939C960.568 516.132 957.646 517.45 954.504 519.783C952.161 521.568 949.818 523.407 947.448 525.274C932.26 537.3 916.576 550.671 900.506 565.469C901.14 557.123 901.691 549.243 902.243 541.775C902.794 534.362 903.318 527.498 903.869 521.211C906.598 488.319 908.141 467.838 908.5 459.766C908.61 457.926 908.555 455.455 908.279 452.408C907.783 446.752 906.129 443.046 903.263 441.343C900.396 439.641 895.71 439.037 889.26 439.586C882.782 440.135 877.159 441.124 872.308 442.551C870.544 437.005 868.615 433.189 866.465 431.157C864.37 429.153 860.456 428.384 854.75 428.824C836.916 430.306 820.515 437.307 805.52 449.855C790.526 462.347 779.059 478.216 771.01 497.435C763.32 515.912 760.067 535.021 761.39 554.789C761.446 555.585 761.501 556.354 761.556 557.15C762.824 572.086 766.848 584.468 773.767 594.324C775.558 596.96 777.57 599.321 779.748 601.6C790.278 612.39 803.536 617.14 819.578 615.795C826.579 615.245 833.443 612.774 840.251 608.437C847.059 604.099 852.379 598.278 856.183 590.947L855.108 606.213C836.806 622.301 822.693 636.606 812.853 647.121C797.968 662.99 793.061 669.964 789.478 675.73C789.478 675.73 778.37 692.505 780.575 715.046C780.63 715.512 780.685 715.979 780.685 716.007C781.099 719.686 782.697 730.119 788.569 738.355C790.553 741.156 792.924 743.682 795.652 745.933C798.106 747.965 800.724 749.694 803.508 751.094C814.424 756.558 827.544 755.57 828.867 755.432C845.847 753.895 857.286 743.874 862.247 739.508C876.002 727.4 881.266 713.151 884.491 704.448C887.965 695.058 889.453 686.794 890.142 680.836C892.292 657.801 894.442 634.766 896.592 611.759L920.021 593.089C927.491 586.939 938.214 578.208 952.216 567.006C957.922 562.449 960.982 560.664 966.136 555.805C971.484 550.78 972.945 548.392 973.909 546.25C976.307 540.842 975.839 535.845 975.48 532.083L975.425 532.028ZM823.63 716.254C823.63 716.254 822.252 715.348 821.26 713.947C817.125 708.182 819.165 694.756 826.194 682.484C827.406 680.342 829.226 677.459 836.695 668.811C844.358 659.888 851.084 652.887 855.852 648.082C855.632 657.691 854.833 665.653 854.061 671.419C851.938 687.371 849.016 695.552 847.059 700.275C841.547 713.536 836.833 715.842 834.849 716.556C833.884 716.913 828.04 719.082 823.63 716.254ZM855.467 531.452C854.254 545.042 851.222 555.667 846.398 563.355C841.602 571.042 836.199 575.078 830.245 575.572C824.567 576.067 819.964 574.502 816.353 570.878C812.797 567.308 810.73 561.488 810.041 553.526C808.856 539.084 810.454 525.219 814.81 511.876C819.165 498.588 825.504 487.606 833.911 478.985C842.318 470.364 851.8 465.504 862.385 464.378L855.494 531.452H855.467Z" fill="#FAFAE6"/>
<path d="M1248.64 509.52C1248.11 505.519 1247.59 501.382 1244.7 497.6C1242.67 494.915 1240.8 494.148 1240.03 493.901C1238.9 493.517 1237.69 493.38 1236.37 493.49C1233.81 493.682 1230.9 494.942 1227.71 497.271C1224.77 499.628 1221.74 502.012 1218.66 504.505C1205.08 515.548 1190.36 528.071 1174.55 542.046L1176.2 515.137C1180.24 460.937 1181.78 427.918 1180.79 416.108C1180.46 411.997 1178.95 408.846 1176.31 406.736C1173.67 404.626 1168.5 403.886 1160.72 404.544C1151.17 405.339 1144.24 407.64 1139.87 411.531C1135.53 415.368 1133.16 421.067 1132.75 428.63C1131.68 456.443 1130.93 477.323 1130.55 491.353C1130.55 498.861 1130.41 506.451 1130.25 514.096C1129.92 530.838 1129.2 547.8 1128.16 564.954L1127.85 570.489L1127.08 584.82C1113.72 596 1100.32 607.152 1086.96 618.332C1081.05 623.593 1074.78 630.608 1069.61 639.651C1066.28 645.46 1056.76 662.668 1059.07 684.315C1059.18 685.357 1060.83 699.222 1067.46 708.237C1069.33 710.758 1071.48 713.06 1073.95 715.142C1073.95 715.142 1077.11 717.8 1081.07 719.965C1096.97 728.569 1114.52 725.938 1114.52 725.938C1130.8 723.5 1140.92 714.019 1145.23 709.881C1157.36 698.208 1161.4 684.836 1164.59 673.683C1167.48 663.627 1167.92 656.886 1169.57 620.771C1169.93 613.126 1170.45 601.918 1171.06 588.19C1194.74 568.79 1214.48 552.815 1230.27 540.319C1233.43 537.826 1236.45 535.414 1239.31 533.195C1242.72 530.537 1245.28 527.687 1247.12 523.604C1247.34 523.138 1247.81 522.042 1248.22 520.535C1248.47 519.631 1249.49 515.795 1248.69 509.492L1248.64 509.52ZM1132.36 620.579C1132.23 636.993 1131.15 649.981 1130.14 659.133C1129.78 662.257 1129.17 667.244 1126.23 672.752C1125.32 674.423 1118.75 686.069 1108.41 686.864C1107.31 686.946 1104.64 687.11 1102.11 685.603C1096.97 682.562 1096.47 675.163 1096.31 672.724C1095.54 661.133 1102.96 651.707 1111.46 641.267C1115.95 635.759 1122.74 628.279 1132.36 620.579Z" fill="#FAFAE6"/>
</svg>
